<svg width="76" height="83" viewBox="0 0 76 83" fill="none" xmlns="http://www.w3.org/2000/svg">
<g id="Layer_x0020_1">
<g id="_1987136914496">
<path id="Vector" fill-rule="evenodd" clip-rule="evenodd" d="M35.6158 75.3564C36.3561 76.4212 36.4861 76.0652 35.6158 77.2664C33.6118 77.0235 33.5051 75.6825 35.6158 75.3564ZM1.57372 0H19.5734H19.7168C22.7312 0.00665487 26.9394 0.163044 29.0468 0.133097C29.6537 0.123115 30.454 0.0632213 31.3343 0H36.4661C37.0263 0.0898407 37.5165 0.226266 37.9033 0.432567L37.9266 1.94655L37.9 6.82124L37.9466 12.8006L37.91 17.9349L37.4998 22.001C18.263 23.0392 19.17 50.9364 37.8633 51.1127L37.9633 82.6302C34.9723 82.0512 27.2295 77.3462 24.7753 75.7091C17.3026 70.7246 14.4016 67.8098 9.47653 61.1283C7.97933 59.0952 7.02232 57.1653 5.8419 54.8062C3.61444 50.3641 2.1806 45.4461 1.39032 39.7828C1.06353 37.4436 0.710075 29.0818 0.5 20.7033V1.29437C0.523342 1.13798 0.546683 1.01487 0.573359 0.941664C0.770096 0.405947 1.11355 0.133097 1.57705 0.00332743L1.57372 0ZM30.3239 69.5534C30.3806 69.5301 30.7641 68.6949 31.4877 69.4968C32.5614 70.688 31.2909 71.094 31.2776 71.1173C29.9538 70.8111 29.477 70.9176 30.3206 69.55L30.3239 69.5534ZM21.8709 71.1905C21.084 70.0492 21.214 68.5219 22.8179 69.4036C24.0917 70.1024 23.2614 71.0906 21.8709 71.1905ZM34.4888 63.3311C35.1423 63.2479 35.269 62.8386 35.8292 63.4575C36.8629 64.5955 35.6158 65.0347 35.6125 65.038C34.2087 64.7585 34.0086 65.4207 34.4888 63.3311ZM16.9692 63.5074C18.4497 62.8486 19.0066 62.7122 18.9032 64.672L17.1126 64.9981L16.9692 63.5074ZM25.7256 64.8151L25.6056 63.4708C28.1798 62.436 28.6533 65.5671 25.7256 64.8151ZM21.4341 57.4149C21.6675 57.3949 21.7442 56.593 22.8479 57.2618C23.4782 57.6445 23.2814 57.9073 23.2448 58.6194L21.4708 58.8989L21.4374 57.4116L21.4341 57.4149ZM30.0405 58.7958C30.0005 54.2272 34.4587 59.6942 30.0405 58.7958V58.7958ZM12.761 58.3998C13.1011 56.0906 14.9518 56.5631 14.5517 58.4897C13.628 59.0487 15.6554 59.1485 13.5746 58.8623C12.3776 58.6993 13.0978 58.6959 12.761 58.3998ZM27.4496 52.8729C23.1681 52.8164 27.5863 48.3476 27.4496 52.8729V52.8729ZM19.0666 51.908C17.8728 54.3703 17.0792 52.5202 17.0626 52.5136L17.2493 51.349C17.266 51.3423 17.8528 49.5921 19.0699 51.9047L19.0666 51.908ZM10.3535 52.3406C8.52619 53.7847 8.74293 52.6101 8.43949 52.4803L8.63289 51.3889C10.0834 50.6402 10.1868 51.2924 10.4335 51.4322L10.3535 52.3406ZM23.3781 45.8521C22.6812 47.0865 23.2448 47.1897 21.4241 46.4543L21.4975 45.1533C23.5649 44.6675 22.6012 44.5444 23.3815 45.8521H23.3781ZM14.8251 46.3678C13.2312 47.2429 13.3879 47.1231 12.691 45.8521C13.0811 44.2016 14.3383 44.2882 14.8251 46.3678ZM5.83856 46.4277C4.47141 47.0799 4.42473 46.5475 4.02792 46.3013C4.08461 45.6491 4.06127 45.4295 4.60146 45.0967C6.08532 44.1784 5.83856 45.313 6.01863 45.3097L5.8419 46.4277H5.83856ZM18.4997 39.0375C19.0433 39.2471 19.0266 39.7695 19.0399 39.7961C18.6798 40.425 18.8932 41.2302 17.5594 40.5681C16.3823 39.9825 17.2593 39.297 17.286 39.2005C17.486 39.1073 16.7024 38.3454 18.4997 39.0375ZM10.1334 39.1805C10.4235 39.4567 11.1738 40.9008 8.49618 40.2853L8.65957 39.2504C8.69291 39.2305 9.02303 38.1224 10.1334 39.1772V39.1805ZM21.044 34.4656C20.9706 34.429 19.4534 33.0514 22.0777 32.6322C22.7379 33.6969 22.7412 32.9516 22.3344 34.2327C22.201 34.3059 22.8179 35.3473 21.044 34.4656ZM12.8344 33.0448C13.8581 32.7087 13.7647 32.7353 14.515 33.2311C15.0952 35.181 12.6743 35.7034 12.8344 33.0448ZM6.02863 34.1694C3.75116 35.7134 2.89752 32.0964 6.00863 33.0048L6.02863 34.1694ZM18.5164 28.3897C17.3693 29.0785 17.3393 28.2266 17.1126 28.2133L17.1359 26.7426L18.8999 27.0354C18.9499 27.7508 19.1566 28.0103 18.5164 28.393V28.3897ZM10.3868 27.2484C10.0567 29.8305 8.79295 28.1667 8.51618 28.1667L8.55286 27.0886C10.3102 26.2002 10.3368 27.2118 10.3868 27.2517V27.2484ZM30.5507 22.3803C29.2035 21.798 29.7737 20.9196 31.2809 20.6168C31.3076 20.66 32.2913 20.5269 31.6477 21.981C31.461 22.4069 31.451 22.7663 30.5507 22.3803ZM21.4274 20.6334L23.2714 20.9495C23.3114 23.0891 21.3908 23.5549 21.4274 20.6334ZM12.8377 20.7432L14.6317 20.9096C14.7384 23.3486 12.691 23.2754 12.8377 20.7432ZM6.06865 20.8164L6.13534 22.1507C4.72484 22.7763 4.12462 22.8595 4.17464 20.7798L6.06865 20.8164ZM34.7622 14.3512L35.6158 14.4411C36.6228 15.6855 36.2327 14.9202 35.9293 16.3344C33.8285 16.341 33.8452 15.7953 34.7622 14.3512ZM27.2995 16.3543C24.5519 16.4043 25.1321 14.4544 27.3529 14.4577L27.2995 16.3543ZM18.253 16.3177C16.7791 16.7503 17.6261 16.2013 17.3527 16.0582C17.2093 15.7521 17.1226 15.8918 17.1493 15.233C17.1759 14.6108 17.2393 14.8803 17.5227 14.4078C18.303 14.5143 19.0833 14.5742 18.9766 15.5391C18.8965 16.2612 18.6531 16.2013 18.2496 16.3177H18.253ZM8.933 16.2745C7.55918 15.5691 8.4695 14.5575 9.93002 14.4244C10.3135 15.0932 10.8003 17.2328 8.933 16.2745ZM30.5674 10.2285C29.2035 9.65622 29.7504 8.7811 31.2843 8.45501C31.3576 8.57147 32.3747 8.20878 31.6544 9.83922C31.441 10.3184 31.2909 10.5313 30.5707 10.2285H30.5674ZM21.6575 10.0389C20.5705 8.98407 21.7476 8.75115 21.8309 8.67462C22.6445 7.90931 23.975 9.02068 23.058 9.97565C22.5545 10.5014 22.2844 10.6445 21.6575 10.0389ZM13.0311 9.99894C11.9474 8.93749 13.1212 8.86761 13.2179 8.77112C14.3316 7.69636 15.2452 9.1937 14.4383 10.0023C13.9048 10.538 13.6113 10.5646 13.0311 9.99562V9.99894ZM5.24169 8.38181C6.74555 8.55484 6.42211 11.2168 4.10795 9.8359C4.13129 9.00737 4.33803 8.27533 5.24169 8.38181ZM35.6192 2.30259C36.4961 3.46053 36.2227 2.73182 35.8792 4.14266C33.5951 4.18591 33.4651 2.58874 35.6192 2.30259ZM27.2495 4.18259C24.7986 4.22584 24.832 2.29926 27.3862 2.30591L27.2495 4.18259ZM18.7165 3.91306C17.9495 4.70167 16.0589 3.96963 17.4727 2.632C18.6264 1.5406 19.37 3.24092 18.7165 3.91306ZM10.0767 3.93303C9.28979 4.72496 7.60919 3.92637 8.85297 2.67859C9.97337 1.55058 10.9037 3.09784 10.0767 3.93303Z" fill="#00548D"/>
<path id="Vector_2" fill-rule="evenodd" clip-rule="evenodd" d="M37.5032 21.9978C38.3535 23.3587 37.9733 27.0455 37.9733 28.9854C37.9733 34.6287 38.2634 46.8371 37.8666 51.1095L37.9667 82.627C39.7273 82.1146 42.7717 80.4808 44.3156 79.6256C45.436 79.0067 46.3296 78.501 47.3433 77.8887C48.357 77.2798 49.354 76.7873 50.3544 76.2183C47.6201 76.012 40.691 73.7494 38.2067 72.6746L37.9767 67.7301C42.6516 67.9829 44.7524 70.6149 49.1039 70.9011C53.8623 71.2139 56.3665 68.5087 60.3246 67.8731C61.3483 67.2576 62.1619 66.4191 63.0322 65.4275C63.7692 64.589 64.9596 63.1315 65.5264 62.3296C56.9934 61.1118 57.9304 64.0266 51.4448 65.0748C48.3737 65.5706 41.3045 62.8354 37.9667 61.4279L38.1034 56.7196C43.8687 57.1355 46.5664 61.4712 53.152 59.4547C60.9281 57.0756 58.9941 55.3287 68.1307 58.1171L70.7316 53.3955C62.6688 51.2826 64.4661 49.1596 55.2561 52.8997C52.6019 53.9778 50.2777 54.6067 47.1533 53.848L40.4409 50.9831L38.0033 51.0896L38.1334 22.0477C43.2585 22.0011 46.6164 24.7562 49.4741 27.2518C54.2858 26.4532 58.6273 23.6848 62.492 23.7613C66.8569 23.8445 69.7379 26.8925 75.0632 27.142C75.1832 25.8609 75.5233 25.7046 75.4767 24.2538C75.4233 22.5402 75.1099 23.2123 75.0632 21.2591C66.5935 21.116 66.2867 15.3429 56.1298 19.5987C46.4263 23.6682 46.2263 19.1362 37.91 17.9317L37.4998 21.9978H37.5032Z" fill="#EC242C"/>
<path id="Vector_3" fill-rule="evenodd" clip-rule="evenodd" d="M37.8666 51.1062C38.2634 46.8338 37.9733 34.6254 37.9733 28.9821C37.9733 27.0455 38.3535 23.3587 37.5032 21.9945C18.2663 23.0326 19.1733 50.9298 37.8666 51.1062Z" fill="#FEF105"/>
<path id="Vector_4" fill-rule="evenodd" clip-rule="evenodd" d="M40.4409 50.9864C41.6146 50.5705 42.5316 50.474 43.672 49.9915C44.8925 49.4791 45.6794 48.8935 46.7931 48.5042C47.6435 47.283 48.2803 47.0135 49.3541 45.7158C50.4544 44.3848 50.7479 43.5363 51.4548 42.355L52.5852 37.6933L51.995 31.9601C51.0947 30.3064 50.2244 28.7525 49.4741 27.2552C46.6164 24.7629 43.2586 22.0078 38.1334 22.051L38.0034 51.0929L40.4409 50.9864Z" fill="#00548D"/>
<path id="Vector_5" fill-rule="evenodd" clip-rule="evenodd" d="M37.9466 12.8008C45.2259 12.864 45.646 18.9465 56.1264 14.4146C66.22 10.0523 66.6001 15.9518 75.0632 16.0683C75.0998 14.3048 75.3799 14.5743 75.4133 13.3697C75.4566 11.7959 75.1065 12.2883 75.0632 10.3484C66.2433 9.67962 65.8832 4.58531 56.3298 8.5616C48.0369 12.0121 45.546 8.90765 37.8966 6.82135L37.9433 12.8008H37.9466Z" fill="#EC242C"/>
<path id="Vector_6" fill-rule="evenodd" clip-rule="evenodd" d="M37.9133 17.9317C46.2296 19.1362 46.4296 23.6682 56.1331 19.5987C66.29 15.3429 66.5968 21.116 75.0665 21.2591C75.3866 20.7101 75.2499 21.1426 75.4199 20.2509C75.4499 20.0978 75.4766 19.8682 75.5 19.622V17.0765C75.4433 16.7903 75.3266 16.5608 75.0665 16.065C66.6035 15.9485 66.2233 10.049 56.1297 14.4112C45.6494 18.9432 45.2292 12.8573 37.9499 12.7974L37.9133 17.9317Z" fill="#FEF105"/>
<path id="Vector_7" fill-rule="evenodd" clip-rule="evenodd" d="M37.9 6.82136C45.546 8.90766 48.0402 12.0122 56.3332 8.56161C65.8832 4.58533 66.2467 9.67963 75.0665 10.3484C75.41 9.83269 75.2299 10.415 75.4233 9.41676C75.4533 9.26703 75.48 9.04742 75.5 8.81117V7.17407C75.42 6.34221 75.2532 5.9895 75.0665 5.12437C66.4968 4.80161 66.1 -0.761862 56.3232 3.36416C45.2592 8.03588 45.2126 1.67382 37.93 1.95L37.9033 6.82469L37.9 6.82136Z" fill="#FEF105"/>
<path id="Vector_8" fill-rule="evenodd" clip-rule="evenodd" d="M65.5264 62.3296C66.1633 61.0685 66.1533 61.2382 66.8903 60.1834C67.4238 59.4214 67.6472 58.8358 68.1274 58.1204C58.9908 55.332 60.9281 57.0789 53.1487 59.458C46.563 61.4711 43.8654 57.1388 38.1 56.7229L37.9633 61.4312C41.3012 62.8387 48.3704 65.5739 51.4414 65.0781C57.9271 64.0299 56.9934 61.1151 65.5231 62.3329L65.5264 62.3296Z" fill="#FEF105"/>
<path id="Vector_9" fill-rule="evenodd" clip-rule="evenodd" d="M46.7931 48.5041C45.6794 48.8935 44.8924 49.4791 43.672 49.9915C42.5316 50.4707 41.6146 50.5705 40.4409 50.9864L47.1532 53.8513C50.2777 54.6133 52.6018 53.9811 55.2561 52.903C64.4661 49.163 62.6688 51.2859 70.7316 53.3988L72.1255 49.6355C72.599 48.421 71.882 49.5955 72.4656 48.6938C67.6739 47.9551 65.1463 44.5079 59.2909 46.155C55.1294 47.3229 52.215 50.0547 46.7931 48.5075V48.5041Z" fill="#FEF105"/>
<path id="Vector_10" fill-rule="evenodd" clip-rule="evenodd" d="M51.4515 42.355C50.7479 43.5363 50.4511 44.3848 49.3507 45.7157C48.277 47.0134 47.6401 47.283 46.7898 48.5041C52.2117 50.0514 55.1261 47.3196 59.2876 46.1516C65.143 44.5046 67.6705 47.9518 72.4623 48.6905C72.8424 47.6523 73.726 44.3482 73.7627 43.0771C68.911 42.6711 66.8269 40.0425 62.472 39.9327C59.0808 39.8461 56.9301 41.3734 54.2124 42.395C54.1524 42.4183 52.9887 42.741 52.8753 42.7443C52.7653 42.7443 52.6219 42.7277 52.5185 42.721C52.4151 42.7144 52.2484 42.6512 52.1617 42.6379C52.0717 42.6246 51.8683 42.6512 51.8049 42.5081C51.7382 42.365 51.5281 42.4549 51.4481 42.355H51.4515Z" fill="#EC242C"/>
<path id="Vector_11" fill-rule="evenodd" clip-rule="evenodd" d="M51.9949 31.9601L52.5851 37.6933C56.4632 36.6418 58.9074 34.2195 63.6091 34.8251C67.7005 35.3508 69.5545 37.6301 74.633 38.0294C74.9198 36.8481 75.4233 33.4508 75.5 30.7756V29.5478C75.4733 28.7525 75.3866 28.0937 75.2132 27.6844L74.9664 32.2962C69.8079 32.1931 67.8072 29.6176 63.7324 29.0686C58.8974 28.4164 56.1864 31.1482 51.9949 31.9635V31.9601Z" fill="#EC242C"/>
<path id="Vector_12" fill-rule="evenodd" clip-rule="evenodd" d="M49.4741 27.2551C50.2243 28.7558 51.0946 30.3064 51.995 31.9601C56.1864 31.1482 58.8974 28.4131 63.7325 29.0652C67.8072 29.6143 69.8113 32.193 74.9665 32.2929L75.2132 27.681L75.0632 27.1387C69.7346 26.8924 66.8536 23.8412 62.492 23.758C58.6273 23.6848 54.2858 26.4499 49.4741 27.2485V27.2551Z" fill="#FEF105"/>
<path id="Vector_13" fill-rule="evenodd" clip-rule="evenodd" d="M37.9066 0.432689L37.93 1.94667C45.2125 1.67049 45.2592 8.03255 56.3232 3.36083C66.1 -0.765188 66.4968 4.79828 75.0665 5.12105V0.432689C72.2088 0.196441 69.2311 0.0666708 66.2 0.00012207H45.8494C44.3122 0.053361 42.9751 0.299591 42.1081 0.296264L37.9066 0.432689Z" fill="#EC242C"/>
<path id="Vector_14" fill-rule="evenodd" clip-rule="evenodd" d="M52.5819 37.6966L51.4515 42.3584C51.5348 42.4582 51.7449 42.3683 51.8083 42.5114C51.8716 42.6512 52.075 42.6279 52.1651 42.6412C52.2518 42.6545 52.4185 42.7144 52.5219 42.7244C52.6219 42.731 52.7653 42.751 52.8787 42.7477C52.9887 42.7443 54.1558 42.4216 54.2158 42.3983C56.9334 41.3768 59.0842 39.8495 62.4754 39.936C66.8269 40.0458 68.9144 42.6745 73.7661 43.0804C74.3163 41.5531 74.5964 39.7962 74.6331 38.0327C69.5546 37.6334 67.7006 35.3541 63.6091 34.8284C58.9075 34.2228 56.4599 36.6452 52.5852 37.6966H52.5819Z" fill="#FEF105"/>
<path id="Vector_15" fill-rule="evenodd" clip-rule="evenodd" d="M50.3544 76.2183C51.5181 74.4315 51.5915 75.1502 53.0286 74.355C53.0853 74.325 53.1987 74.2651 53.2554 74.2285L56.2298 71.8095C56.4632 71.6431 56.4065 71.6564 56.82 71.317L60.3246 67.8731C56.3665 68.5087 53.8589 71.2139 49.1039 70.9011C44.7557 70.6149 42.6516 67.9829 37.9766 67.73L38.2067 72.6746C40.6909 73.746 47.6201 76.012 50.3544 76.2183Z" fill="#FEF105"/>
<path id="Vector_16" fill-rule="evenodd" clip-rule="evenodd" d="M17.2426 51.3557L17.0558 52.5203C17.0725 52.527 17.8695 54.3771 19.0599 51.9148C17.8428 49.6022 17.2559 51.3491 17.2392 51.3591L17.2426 51.3557Z" fill="#E9F328"/>
<path id="Vector_17" fill-rule="evenodd" clip-rule="evenodd" d="M12.6877 45.8555C13.3846 47.1266 13.2279 47.2463 14.8218 46.3712C14.3349 44.2883 13.0778 44.2017 12.6877 45.8555Z" fill="#E9F328"/>
<path id="Vector_18" fill-rule="evenodd" clip-rule="evenodd" d="M22.3311 34.2361C22.7379 32.955 22.7346 33.7004 22.0743 32.6356C19.4501 33.0548 20.9673 34.4324 21.0406 34.469C22.8146 35.3508 22.1977 34.3093 22.3311 34.2361Z" fill="#E9F328"/>
<path id="Vector_19" fill-rule="evenodd" clip-rule="evenodd" d="M9.92666 14.4279C8.46614 14.5643 7.55582 15.5758 8.92964 16.2779C10.797 17.2329 10.3101 15.0933 9.92666 14.4279Z" fill="#E9F328"/>
<path id="Vector_20" fill-rule="evenodd" clip-rule="evenodd" d="M35.9293 16.3412C36.2327 14.927 36.6229 15.6923 35.6159 14.4478L34.7622 14.358C33.8452 15.8021 33.8286 16.3478 35.9293 16.3412Z" fill="#E9F328"/>
<path id="Vector_21" fill-rule="evenodd" clip-rule="evenodd" d="M21.8242 8.67806C21.7408 8.75459 20.5671 8.99083 21.6508 10.0423C22.2744 10.6479 22.5478 10.5048 23.0513 9.97908C23.9683 9.02411 22.6378 7.91275 21.8242 8.67806Z" fill="#E9F328"/>
<path id="Vector_22" fill-rule="evenodd" clip-rule="evenodd" d="M22.8179 69.4038C21.214 68.5253 21.084 70.0493 21.8709 71.1906C23.2614 71.0874 24.0917 70.1025 22.8179 69.4038Z" fill="#E9F328"/>
<path id="Vector_23" fill-rule="evenodd" clip-rule="evenodd" d="M17.2827 39.204C17.256 39.3005 16.379 39.9826 17.5561 40.5715C18.8932 41.237 18.6765 40.4285 19.0366 39.7996C19.0233 39.773 19.04 39.2505 18.4964 39.0409C16.6991 38.3488 17.4827 39.1108 17.2827 39.204Z" fill="#E9F328"/>
<path id="Vector_24" fill-rule="evenodd" clip-rule="evenodd" d="M13.2112 8.77788C13.1145 8.87105 11.9408 8.94093 13.0245 10.0057C13.6047 10.5747 13.8981 10.5447 14.4317 10.0124C15.242 9.20379 14.3283 7.70645 13.2112 8.78121V8.77788Z" fill="#E9F328"/>
<path id="Vector_25" fill-rule="evenodd" clip-rule="evenodd" d="M4.10461 9.84268C6.41877 11.2236 6.74222 8.56162 5.23835 8.38859C4.33803 8.28544 4.13129 9.01415 4.10461 9.84268Z" fill="#E9F328"/>
<path id="Vector_26" fill-rule="evenodd" clip-rule="evenodd" d="M8.62956 51.3923L8.43616 52.4837C8.7396 52.6135 8.52286 53.7881 10.3502 52.344L10.4302 51.4356C10.1834 51.2925 10.0767 50.6437 8.62956 51.3923Z" fill="#E9F328"/>
<path id="Vector_27" fill-rule="evenodd" clip-rule="evenodd" d="M30.0405 58.7959C30.0005 54.2273 34.4587 59.6943 30.0405 58.7959V58.7959Z" fill="#E9F328"/>
<path id="Vector_28" fill-rule="evenodd" clip-rule="evenodd" d="M6.13533 22.1575L6.06864 20.8232L4.17463 20.7866C4.12461 22.8663 4.72482 22.7831 6.13533 22.1575Z" fill="#E9F328"/>
<path id="Vector_29" fill-rule="evenodd" clip-rule="evenodd" d="M21.4208 46.4578C23.2414 47.1931 22.6812 47.09 23.3748 45.8555C22.5945 44.5478 23.5615 44.6709 21.4908 45.1567L21.4174 46.4578H21.4208Z" fill="#E9F328"/>
<path id="Vector_30" fill-rule="evenodd" clip-rule="evenodd" d="M17.3494 16.0617C17.6228 16.2047 16.7725 16.7538 18.2497 16.3212C18.6532 16.2047 18.8966 16.2613 18.9766 15.5426C19.08 14.5776 18.303 14.5177 17.5228 14.4113C17.2393 14.8838 17.1793 14.6142 17.1493 15.2365C17.1193 15.8953 17.206 15.7555 17.3527 16.0617H17.3494Z" fill="#E9F328"/>
<path id="Vector_31" fill-rule="evenodd" clip-rule="evenodd" d="M18.9032 64.6721C19.0066 62.7123 18.4497 62.852 16.9692 63.5075L17.1126 64.9982L18.9032 64.6721Z" fill="#E9F328"/>
<path id="Vector_32" fill-rule="evenodd" clip-rule="evenodd" d="M4.02457 46.3047C4.42138 46.5509 4.4714 47.0833 5.83522 46.4311L6.01195 45.3131C5.83188 45.3165 6.07864 44.1818 4.59478 45.1002C4.05459 45.4329 4.08126 45.6525 4.02124 46.3047H4.02457Z" fill="#E9F328"/>
<path id="Vector_33" fill-rule="evenodd" clip-rule="evenodd" d="M17.4694 2.63544C16.0589 3.96975 17.9462 4.70178 18.7132 3.91651C19.3667 3.24769 18.6231 1.54405 17.4694 2.63544Z" fill="#E9F328"/>
<path id="Vector_34" fill-rule="evenodd" clip-rule="evenodd" d="M12.7577 58.3999C13.0945 58.696 12.3742 58.6994 13.5713 58.8624C15.6521 59.1486 13.6247 59.0488 14.5483 58.4897C14.9485 56.5632 13.0978 56.0873 12.7577 58.3999Z" fill="#E9F328"/>
<path id="Vector_35" fill-rule="evenodd" clip-rule="evenodd" d="M25.7256 64.8152C28.6533 65.5672 28.1798 62.4361 25.6056 63.4709L25.7256 64.8152Z" fill="#E9F328"/>
<path id="Vector_36" fill-rule="evenodd" clip-rule="evenodd" d="M35.8326 63.4576C35.269 62.8387 35.1457 63.2513 34.4921 63.3312C34.0153 65.4208 34.2153 64.7587 35.6158 65.0382C35.6192 65.0315 36.8696 64.5956 35.8326 63.4576Z" fill="#FEF105"/>
<path id="Vector_37" fill-rule="evenodd" clip-rule="evenodd" d="M8.84965 2.68204C7.60921 3.92982 9.28647 4.72841 10.0734 3.93648C10.9004 3.10462 9.97005 1.55404 8.84965 2.68204Z" fill="#E9F328"/>
<path id="Vector_38" fill-rule="evenodd" clip-rule="evenodd" d="M31.2809 8.46179C29.7504 8.78788 29.2002 9.65967 30.564 10.2353C31.2876 10.5381 31.4377 10.3285 31.6477 9.846C32.368 8.21556 31.351 8.57825 31.2776 8.46179H31.2809Z" fill="#FEF105"/>
<path id="Vector_39" fill-rule="evenodd" clip-rule="evenodd" d="M6.02526 34.1762L6.00526 33.0116C2.89082 32.1032 3.74445 35.7234 6.02526 34.1762Z" fill="#E9F328"/>
<path id="Vector_40" fill-rule="evenodd" clip-rule="evenodd" d="M27.4462 52.8764C23.1647 52.8198 27.583 48.3511 27.4462 52.8764V52.8764Z" fill="#E9F328"/>
<path id="Vector_41" fill-rule="evenodd" clip-rule="evenodd" d="M31.281 20.6236C29.7704 20.9264 29.2036 21.8048 30.5507 22.3871C31.451 22.7764 31.461 22.4137 31.6478 21.9878C32.2913 20.5304 31.3076 20.6668 31.281 20.6236Z" fill="#FEF105"/>
<path id="Vector_42" fill-rule="evenodd" clip-rule="evenodd" d="M14.5117 33.2379C13.7647 32.7421 13.8548 32.7155 12.8311 33.0515C12.6677 35.7101 15.0885 35.1911 14.5117 33.2379Z" fill="#E9F328"/>
<path id="Vector_43" fill-rule="evenodd" clip-rule="evenodd" d="M8.55285 27.0921L8.51617 28.1702C8.79294 28.1702 10.0567 29.8372 10.3868 27.2518C10.3368 27.2119 10.3101 26.2003 8.55285 27.0888V27.0921Z" fill="#E9F328"/>
<path id="Vector_44" fill-rule="evenodd" clip-rule="evenodd" d="M22.8446 57.2619C21.7409 56.5931 21.6675 57.3917 21.4308 57.415L21.4641 58.9023L23.2381 58.6228C23.2748 57.9108 23.4715 57.6479 22.8413 57.2653L22.8446 57.2619Z" fill="#E9F328"/>
<path id="Vector_45" fill-rule="evenodd" clip-rule="evenodd" d="M17.1093 28.2201C17.336 28.2334 17.366 29.0852 18.5131 28.3964C19.1533 28.0138 18.9432 27.7542 18.8966 27.0388L17.1326 26.746L17.1093 28.2168V28.2201Z" fill="#E9F328"/>
<path id="Vector_46" fill-rule="evenodd" clip-rule="evenodd" d="M27.2995 16.3611L27.3529 14.4645C25.1354 14.4612 24.5552 16.4144 27.2995 16.3611Z" fill="#E9F328"/>
<path id="Vector_47" fill-rule="evenodd" clip-rule="evenodd" d="M35.8759 4.1461C36.2194 2.73527 36.4928 3.46398 35.6158 2.30603C33.4584 2.59219 33.5918 4.18936 35.8759 4.1461Z" fill="#FEF105"/>
<path id="Vector_48" fill-rule="evenodd" clip-rule="evenodd" d="M31.4876 69.4969C30.764 68.695 30.3806 69.5302 30.3239 69.5535C29.4803 70.921 29.9571 70.8146 31.2809 71.1207C31.2942 71.0974 32.5647 70.6881 31.491 69.5002L31.4876 69.4969Z" fill="#FEF105"/>
<path id="Vector_49" fill-rule="evenodd" clip-rule="evenodd" d="M27.2462 4.18602L27.3829 2.30934C24.8286 2.30269 24.7953 4.22927 27.2462 4.18602Z" fill="#E9F328"/>
<path id="Vector_50" fill-rule="evenodd" clip-rule="evenodd" d="M35.6158 77.2632C36.4861 76.062 36.3561 76.418 35.6158 75.3532C33.5051 75.6793 33.6118 77.0169 35.6158 77.2632Z" fill="#FEF105"/>
<path id="Vector_51" fill-rule="evenodd" clip-rule="evenodd" d="M23.2681 20.9596L21.4241 20.6435C21.3874 23.565 23.3081 23.1025 23.2681 20.9596Z" fill="#E9F328"/>
<path id="Vector_52" fill-rule="evenodd" clip-rule="evenodd" d="M14.6284 20.9164L12.8344 20.75C12.6844 23.2822 14.7317 23.3554 14.6284 20.9164Z" fill="#E9F328"/>
<path id="Vector_53" fill-rule="evenodd" clip-rule="evenodd" d="M8.65289 39.2572L8.4895 40.292C11.1671 40.9076 10.4169 39.4635 10.1268 39.1873C9.01636 38.1292 8.68624 39.2405 8.65289 39.2605V39.2572Z" fill="#E9F328"/>
</g>
</g>
</svg>
