<svg width="155" height="155" viewBox="0 0 155 155" fill="none" xmlns="http://www.w3.org/2000/svg">
<g id="solar:calendar-bold">
<path id="Vector" d="M49.8361 16.6718C49.8361 15.3955 49.329 14.1714 48.4265 13.2689C47.524 12.3663 46.2999 11.8593 45.0236 11.8593C43.7472 11.8593 42.5231 12.3663 41.6206 13.2689C40.7181 14.1714 40.2111 15.3955 40.2111 16.6718V26.8101C30.9711 27.5481 24.9137 29.3576 20.4606 33.8171C16.001 38.2703 14.1915 44.3341 13.4471 53.5676H140.767C140.022 44.3276 138.213 38.2703 133.753 33.8171C129.3 29.3576 123.236 27.5481 114.003 26.8037V16.6718C114.003 15.3955 113.496 14.1714 112.593 13.2689C111.691 12.3663 110.467 11.8593 109.19 11.8593C107.914 11.8593 106.69 12.3663 105.787 13.2689C104.885 14.1714 104.378 15.3955 104.378 16.6718V26.3802C100.111 26.2968 95.3238 26.2968 89.9402 26.2968H64.2736C58.89 26.2968 54.1031 26.2968 49.8361 26.3802V16.6718Z" fill="#788B98"/>
<path id="Vector_2" fill-rule="evenodd" clip-rule="evenodd" d="M12.9403 77.6301C12.9403 72.2465 12.9403 67.4597 13.0237 63.1926H141.19C141.274 67.4597 141.274 72.2465 141.274 77.6301V90.4635C141.274 114.661 141.274 126.763 133.753 134.276C126.233 141.79 114.138 141.797 89.9403 141.797H64.2736C40.0764 141.797 27.9746 141.797 20.4606 134.276C12.9467 126.756 12.9403 114.661 12.9403 90.4635V77.6301ZM109.19 90.4635C110.892 90.4635 112.524 89.7874 113.728 88.5841C114.931 87.3807 115.607 85.7486 115.607 84.0468C115.607 82.345 114.931 80.7129 113.728 79.5095C112.524 78.3062 110.892 77.6301 109.19 77.6301C107.489 77.6301 105.856 78.3062 104.653 79.5095C103.45 80.7129 102.774 82.345 102.774 84.0468C102.774 85.7486 103.45 87.3807 104.653 88.5841C105.856 89.7874 107.489 90.4635 109.19 90.4635ZM109.19 116.13C110.892 116.13 112.524 115.454 113.728 114.251C114.931 113.047 115.607 111.415 115.607 109.713C115.607 108.012 114.931 106.38 113.728 105.176C112.524 103.973 110.892 103.297 109.19 103.297C107.489 103.297 105.856 103.973 104.653 105.176C103.45 106.38 102.774 108.012 102.774 109.713C102.774 111.415 103.45 113.047 104.653 114.251C105.856 115.454 107.489 116.13 109.19 116.13ZM83.5236 84.0468C83.5236 85.7486 82.8476 87.3807 81.6442 88.5841C80.4409 89.7874 78.8088 90.4635 77.107 90.4635C75.4052 90.4635 73.7731 89.7874 72.5697 88.5841C71.3664 87.3807 70.6903 85.7486 70.6903 84.0468C70.6903 82.345 71.3664 80.7129 72.5697 79.5095C73.7731 78.3062 75.4052 77.6301 77.107 77.6301C78.8088 77.6301 80.4409 78.3062 81.6442 79.5095C82.8476 80.7129 83.5236 82.345 83.5236 84.0468ZM83.5236 109.713C83.5236 111.415 82.8476 113.047 81.6442 114.251C80.4409 115.454 78.8088 116.13 77.107 116.13C75.4052 116.13 73.7731 115.454 72.5697 114.251C71.3664 113.047 70.6903 111.415 70.6903 109.713C70.6903 108.012 71.3664 106.38 72.5697 105.176C73.7731 103.973 75.4052 103.297 77.107 103.297C78.8088 103.297 80.4409 103.973 81.6442 105.176C82.8476 106.38 83.5236 108.012 83.5236 109.713ZM45.0236 90.4635C46.7254 90.4635 48.3576 89.7874 49.5609 88.5841C50.7643 87.3807 51.4403 85.7486 51.4403 84.0468C51.4403 82.345 50.7643 80.7129 49.5609 79.5095C48.3576 78.3062 46.7254 77.6301 45.0236 77.6301C43.3218 77.6301 41.6897 78.3062 40.4864 79.5095C39.283 80.7129 38.607 82.345 38.607 84.0468C38.607 85.7486 39.283 87.3807 40.4864 88.5841C41.6897 89.7874 43.3218 90.4635 45.0236 90.4635ZM45.0236 116.13C46.7254 116.13 48.3576 115.454 49.5609 114.251C50.7643 113.047 51.4403 111.415 51.4403 109.713C51.4403 108.012 50.7643 106.38 49.5609 105.176C48.3576 103.973 46.7254 103.297 45.0236 103.297C43.3218 103.297 41.6897 103.973 40.4864 105.176C39.283 106.38 38.607 108.012 38.607 109.713C38.607 111.415 39.283 113.047 40.4864 114.251C41.6897 115.454 43.3218 116.13 45.0236 116.13Z" fill="#788B98"/>
</g>
</svg>
