<svg width="186" height="155" viewBox="0 0 186 155" fill="none" xmlns="http://www.w3.org/2000/svg">
<path id="Vector" d="M72.298 10.64C58.3902 3.99975 38.9507 0.747017 12.925 0.631536C10.4705 0.598189 8.06418 1.31391 6.0269 2.68326C4.35468 3.81356 2.98582 5.33745 2.04073 7.1209C1.09564 8.90435 0.603283 10.8927 0.606954 12.9111V123.042C0.606954 130.487 5.90372 136.103 12.925 136.103C40.2826 136.103 67.7249 138.659 84.1618 154.195C84.3867 154.409 84.6693 154.552 84.9746 154.606C85.2799 154.66 85.5944 154.623 85.879 154.5C86.1636 154.377 86.4058 154.173 86.5755 153.914C86.7451 153.654 86.8348 153.351 86.8333 153.04V23.2737C86.8337 22.3982 86.6463 21.5328 86.2838 20.7359C85.9212 19.939 85.3919 19.2292 84.7316 18.6544C80.9665 15.4357 76.7842 12.7398 72.298 10.64ZM179.958 2.67171C177.92 1.30577 175.513 0.594044 173.06 0.631536C147.034 0.747017 127.595 3.98435 113.687 10.64C109.201 12.736 105.017 15.4265 101.249 18.639C100.59 19.2147 100.062 19.9247 99.7002 20.7215C99.3384 21.5182 99.1512 22.3832 99.1514 23.2583V153.033C99.1512 153.331 99.239 153.622 99.4038 153.87C99.5686 154.119 99.803 154.313 100.078 154.428C100.352 154.544 100.655 154.576 100.948 154.52C101.24 154.464 101.51 154.323 101.723 154.114C111.604 144.299 128.946 136.092 173.075 136.095C176.342 136.095 179.475 134.798 181.785 132.488C184.095 130.178 185.393 127.044 185.393 123.777V12.9149C185.398 10.8926 184.904 8.9002 183.956 7.11374C183.008 5.32729 181.635 3.80171 179.958 2.67171Z" fill="#788B98"/>
</svg>
