<svg width="155" height="155" viewBox="0 0 155 155" fill="none" xmlns="http://www.w3.org/2000/svg">
<path id="Vector" d="M77.1069 0.630127C61.8778 0.630127 46.9906 5.1461 34.3281 13.607C21.6655 22.0678 11.7962 34.0936 5.96824 48.1635C0.140296 62.2334 -1.38456 77.7155 1.5865 92.6521C4.55756 107.589 11.8911 121.309 22.6597 132.077C33.4284 142.846 47.1485 150.179 62.085 153.151C77.0215 156.122 92.5037 154.597 106.574 148.769C120.643 142.941 132.669 133.072 141.13 120.409C149.591 107.746 154.107 92.8593 154.107 77.6301C154.085 57.2151 145.966 37.6423 131.53 23.2067C117.095 8.77108 97.522 0.651686 77.1069 0.630127ZM77.1069 125.015C75.3497 125.015 73.632 124.494 72.1709 123.517C70.7099 122.541 69.5711 121.154 68.8986 119.53C68.2262 117.907 68.0502 116.12 68.3931 114.397C68.7359 112.673 69.582 111.09 70.8246 109.848C72.0671 108.605 73.6502 107.759 75.3736 107.416C77.0971 107.073 78.8835 107.249 80.5069 107.922C82.1304 108.594 83.518 109.733 84.4942 111.194C85.4705 112.655 85.9916 114.373 85.9916 116.13C85.9916 118.486 85.0555 120.746 83.3893 122.412C81.7231 124.079 79.4633 125.015 77.1069 125.015ZM83.03 88.9432V89.4763C83.03 91.0472 82.406 92.5537 81.2952 93.6645C80.1844 94.7753 78.6778 95.3993 77.1069 95.3993C75.5361 95.3993 74.0295 94.7753 72.9187 93.6645C71.8079 92.5537 71.1839 91.0472 71.1839 89.4763V83.5532C71.1839 81.9823 71.8079 80.4757 72.9187 79.3649C74.0295 78.2541 75.5361 77.6301 77.1069 77.6301C86.9022 77.6301 94.8762 70.9667 94.8762 62.8224C94.8762 54.6782 86.9022 48.0147 77.1069 48.0147C67.3117 48.0147 59.3377 54.6782 59.3377 62.8224V65.784C59.3377 67.3549 58.7137 68.8614 57.6029 69.9722C56.4921 71.083 54.9855 71.707 53.4146 71.707C51.8438 71.707 50.3372 71.083 49.2264 69.9722C48.1156 68.8614 47.4916 67.3549 47.4916 65.784V62.8224C47.4916 48.1258 60.7741 36.1686 77.1069 36.1686C93.4398 36.1686 106.722 48.1258 106.722 62.8224C106.722 75.6903 96.5346 86.4629 83.03 88.9432Z" fill="#788B98"/>
</svg>
